<svg
  width="1024"
  height="1024"
  viewBox="0 0 1024 1024"
  xmlns="http://www.w3.org/2000/svg">
  <path
    d="m 64,808.39606 134.14812,-6.33242 19.55617,-25.35878 c 20.74408,-26.89929 41.09056,-77.15918 35.13633,-86.79321 -8.35473,-13.51904 46.6303,-155.57581 98.64046,-254.84094 60.00343,-114.5206 87.72705,-150.70013 133.59729,-174.34581 15.79257,-8.14127 30.88071,-21.62971 33.52964,-29.9756 8.90764,-28.06529 -14.57077,-66.30123 -53.34025,-86.86843 -19.92749,-10.57166 -36.23174,-21.45233 -36.23174,-24.17982 0,-6.55277 29.95962,-14.34852 55.65397,-14.48196 11.28434,-0.0588 24.69038,-5.13533 29.79116,-11.281459 11.92092,-14.363847 81.07885,-29.274914 108.30693,-23.351927 63.89131,13.898185 69.55426,21.939794 167.27407,237.542346 21.83146,48.16711 33.56036,97.19962 21.46264,89.72283 -4.5072,-2.78586 -7.69059,6.94014 -7.69059,23.49752 0,15.70169 -3.26998,26.22969 -7.36117,23.7011 -4.04901,-2.50266 -14.49441,11.57625 -23.21265,31.28496 -25.06972,56.67419 -72.9222,104.73079 -139.711,140.30615 -33.03296,17.59548 -60.06004,36.78933 -60.06004,42.6529 0,5.86403 15.07102,18.63076 33.49071,28.37137 18.41972,9.74085 39.78289,25.48097 47.4736,34.97868 l 13.98328,17.26848 56.80144,-17.25283 c 51.63905,-15.68478 58.02509,-16.14549 70.26543,-5.06807 17.1405,15.5119 27.8853,15.30232 83.76572,-1.63202 C 934.0543,699.35616 960,701.4621 960,722.51165 c 0,11.9177 -5.52239,15.07373 -26.37667,15.07373 -18.54205,0 -29.7762,5.12022 -37.82276,17.23896 -10.8522,16.3441 -13.56666,16.74934 -52.30204,7.80777 -22.47064,-5.18713 -55.76204,-9.43095 -73.98021,-9.43095 -42.15945,0 -113.59877,20.99344 -118.95724,34.95715 -2.25467,5.87679 -9.28144,12.67349 -15.61463,15.10378 -7.02869,2.6974 -9.47516,1.11846 -6.28004,-4.05092 3.24627,-5.25213 -0.30516,-7.26675 -9.35524,-5.30329 -8.02419,1.74117 -13.45965,8.22886 -12.07942,14.41524 2.01271,9.01586 0.54107,9.31196 -7.41821,1.48742 -5.46067,-5.36819 -27.44555,-9.76048 -48.8563,-9.76048 -29.52289,0 -43.52941,4.24474 -57.97067,17.56857 l -19.04177,17.56887 5.49014,-17.85098 5.49019,-17.85105 -84.18796,3.5414 c -93.13237,3.91717 -89.94479,2.1898 -124.14587,67.29808 -35.94644,68.43168 -83.09312,104.53456 -95.02411,72.76515 -2.9335,-7.81168 -10.4265,-18.02246 -16.65109,-22.69089 -7.18907,-5.39176 -10.04193,-17.17577 -7.8216,-32.30641 L 160.59062,864.27479 64,859.44762 Z m 352.74071,-49.88194 c 25.44676,-5.29236 47.44918,-13.16989 48.89441,-17.50511 1.44603,-4.33521 -11.09875,-21.28588 -27.87502,-37.66749 l -30.50233,-29.78471 -32.05649,43.39313 c -17.63087,23.86606 -32.05643,45.30007 -32.05643,47.63065 0,6.4207 22.45748,4.56939 73.59586,-6.06666 z m 178.21657,-25.02025 c 5.18717,-27.13481 -34.39641,-61.11513 -65.82015,-56.50338 -12.10983,1.77663 -22.01781,0.32399 -22.01781,-3.22456 0,-3.55031 -12.29804,-6.45621 -27.32924,-6.45621 -15.03091,0 -27.32898,2.5144 -27.32898,5.58757 0,3.07416 16.55807,22.39904 36.79601,42.94565 32.25976,32.75267 40.81054,37.35761 69.3642,37.35761 28.62162,0 33.02506,-2.38743 36.33597,-19.70757 z" />
</svg>
